<svg xmlns="http://www.w3.org/2000/svg" viewBox="0 0 272 124" role="img" aria-label="neno">
  <g font-family="ui-rounded, 'SF Pro Rounded', Nunito, system-ui, sans-serif" font-size="86" font-weight="800"
     text-anchor="middle" paint-order="stroke" stroke="#2e211c" stroke-width="13" stroke-linejoin="round" fill="#e8552f">
    <text x="34" y="78" transform="rotate(-5 34 78)">n</text>
    <text x="96" y="84" transform="rotate(4 96 84)">e</text>
    <text x="158" y="76" transform="rotate(-3 158 76)">n</text>
  </g>
  <g stroke="#f5a623" stroke-width="7" stroke-linecap="round">
    <path d="M232 14v-12"/>
    <path d="M250 26l11-11"/>
  </g>
  <g transform="translate(-10 8)">
    <path d="M222 26c-24 0-43 14-43 32 0 11 7 20 17 26l-5 17 20-12c3 1 7 1 11 1 24 0 43-14 43-32s-19-32-43-32z"
          fill="#f5a623" stroke="#2e211c" stroke-width="7" stroke-linejoin="round"/>
    <g fill="#2e211c">
      <circle cx="204" cy="58" r="6.5"/><circle cx="222" cy="58" r="6.5"/><circle cx="240" cy="58" r="6.5"/>
    </g>
  </g>
</svg>
